<mxfile host="app.diagrams.net" modified="2024-01-26T02:10:07.730Z" agent="Mozilla/5.0 (Windows NT 10.0; Win64; x64) AppleWebKit/537.36 (KHTML, like Gecko) Chrome/120.0.0.0 Safari/537.36" etag="3rWooLJTSHAiWRWTNLRo" version="23.0.1" type="google">
  <diagram name="Page-1" id="VnPCcFj165kNgUXBqin6">
    <mxGraphModel dx="1028" dy="551" grid="1" gridSize="10" guides="1" tooltips="1" connect="1" arrows="1" fold="1" page="0" pageScale="1" pageWidth="850" pageHeight="1100" math="0" shadow="0">
      <root>
        <mxCell id="0" />
        <mxCell id="1" parent="0" />
        <mxCell id="e6CmxIZeDy8vNOFkBmJb-35" style="edgeStyle=orthogonalEdgeStyle;rounded=0;orthogonalLoop=1;jettySize=auto;html=1;exitX=1;exitY=0.25;exitDx=0;exitDy=0;entryX=0;entryY=0;entryDx=0;entryDy=35;entryPerimeter=0;dashed=1;" parent="1" source="e6CmxIZeDy8vNOFkBmJb-23" target="e6CmxIZeDy8vNOFkBmJb-32" edge="1">
          <mxGeometry relative="1" as="geometry" />
        </mxCell>
        <mxCell id="e6CmxIZeDy8vNOFkBmJb-36" style="edgeStyle=orthogonalEdgeStyle;rounded=0;orthogonalLoop=1;jettySize=auto;html=1;exitX=1;exitY=0.75;exitDx=0;exitDy=0;entryX=0;entryY=0;entryDx=0;entryDy=35;entryPerimeter=0;dashed=1;" parent="1" source="e6CmxIZeDy8vNOFkBmJb-23" target="e6CmxIZeDy8vNOFkBmJb-29" edge="1">
          <mxGeometry relative="1" as="geometry" />
        </mxCell>
        <mxCell id="e6CmxIZeDy8vNOFkBmJb-23" value="&lt;&lt;component&gt;&gt;&#xa;HR" style="shape=module;align=left;spacingLeft=20;align=center;verticalAlign=middle;fillStyle=auto;horizontal=1;" parent="1" vertex="1">
          <mxGeometry x="120" y="270" width="150" height="60" as="geometry" />
        </mxCell>
        <mxCell id="e6CmxIZeDy8vNOFkBmJb-26" value="" style="ellipse;html=1;fillStyle=auto;" parent="1" vertex="1">
          <mxGeometry x="180" y="360" width="30" height="30" as="geometry" />
        </mxCell>
        <mxCell id="e6CmxIZeDy8vNOFkBmJb-27" value="" style="endArrow=open;html=1;rounded=0;align=center;verticalAlign=top;endFill=0;labelBackgroundColor=none;endSize=6;entryX=0.5;entryY=1;entryDx=0;entryDy=0;" parent="1" source="e6CmxIZeDy8vNOFkBmJb-26" target="e6CmxIZeDy8vNOFkBmJb-23" edge="1">
          <mxGeometry relative="1" as="geometry">
            <mxPoint x="180" y="290" as="targetPoint" />
          </mxGeometry>
        </mxCell>
        <mxCell id="e6CmxIZeDy8vNOFkBmJb-28" value="Manager" style="text;html=1;align=center;verticalAlign=middle;resizable=0;points=[];autosize=1;strokeColor=none;fillColor=none;" parent="1" vertex="1">
          <mxGeometry x="160" y="390" width="70" height="30" as="geometry" />
        </mxCell>
        <mxCell id="e6CmxIZeDy8vNOFkBmJb-42" style="edgeStyle=orthogonalEdgeStyle;rounded=0;orthogonalLoop=1;jettySize=auto;html=1;exitX=0;exitY=0;exitDx=0;exitDy=15;exitPerimeter=0;dashed=1;" parent="1" source="e6CmxIZeDy8vNOFkBmJb-29" edge="1">
          <mxGeometry relative="1" as="geometry">
            <mxPoint x="420" y="485.0526315789475" as="targetPoint" />
          </mxGeometry>
        </mxCell>
        <mxCell id="e6CmxIZeDy8vNOFkBmJb-29" value="&lt;&lt;component&gt;&gt;&#xa;Stock" style="shape=module;align=left;spacingLeft=20;align=center;verticalAlign=middle;fillStyle=auto;horizontal=1;" parent="1" vertex="1">
          <mxGeometry x="450" y="470" width="150" height="60" as="geometry" />
        </mxCell>
        <mxCell id="e6CmxIZeDy8vNOFkBmJb-34" style="edgeStyle=orthogonalEdgeStyle;rounded=0;orthogonalLoop=1;jettySize=auto;html=1;entryX=1;entryY=0.5;entryDx=0;entryDy=0;" parent="1" source="e6CmxIZeDy8vNOFkBmJb-30" target="e6CmxIZeDy8vNOFkBmJb-29" edge="1">
          <mxGeometry relative="1" as="geometry">
            <Array as="points">
              <mxPoint x="620" y="380" />
              <mxPoint x="620" y="500" />
            </Array>
          </mxGeometry>
        </mxCell>
        <mxCell id="e6CmxIZeDy8vNOFkBmJb-38" style="edgeStyle=orthogonalEdgeStyle;rounded=0;orthogonalLoop=1;jettySize=auto;html=1;exitX=0;exitY=0;exitDx=0;exitDy=35;exitPerimeter=0;dashed=1;entryX=0;entryY=0;entryDx=0;entryDy=35;entryPerimeter=0;" parent="1" target="e6CmxIZeDy8vNOFkBmJb-30" edge="1">
          <mxGeometry relative="1" as="geometry">
            <mxPoint x="360" y="385.0526315789474" as="sourcePoint" />
          </mxGeometry>
        </mxCell>
        <mxCell id="e6CmxIZeDy8vNOFkBmJb-30" value="&lt;&lt;component&gt;&gt;&#xa;Finance" style="shape=module;align=left;spacingLeft=20;align=center;verticalAlign=middle;fillStyle=auto;horizontal=1;" parent="1" vertex="1">
          <mxGeometry x="450" y="350" width="150" height="60" as="geometry" />
        </mxCell>
        <mxCell id="e6CmxIZeDy8vNOFkBmJb-33" style="edgeStyle=orthogonalEdgeStyle;rounded=0;orthogonalLoop=1;jettySize=auto;html=1;exitX=1;exitY=0.5;exitDx=0;exitDy=0;" parent="1" source="e6CmxIZeDy8vNOFkBmJb-31" edge="1">
          <mxGeometry relative="1" as="geometry">
            <mxPoint x="600.2631578947369" y="510" as="targetPoint" />
            <Array as="points">
              <mxPoint x="650" y="260" />
              <mxPoint x="650" y="510" />
            </Array>
          </mxGeometry>
        </mxCell>
        <mxCell id="e6CmxIZeDy8vNOFkBmJb-39" style="edgeStyle=orthogonalEdgeStyle;rounded=0;orthogonalLoop=1;jettySize=auto;html=1;exitX=0;exitY=0;exitDx=0;exitDy=35;exitPerimeter=0;dashed=1;entryX=0;entryY=0;entryDx=0;entryDy=35;entryPerimeter=0;" parent="1" target="e6CmxIZeDy8vNOFkBmJb-31" edge="1">
          <mxGeometry relative="1" as="geometry">
            <mxPoint x="360" y="265.0526315789474" as="sourcePoint" />
          </mxGeometry>
        </mxCell>
        <mxCell id="e6CmxIZeDy8vNOFkBmJb-31" value="&lt;&lt;component&gt;&gt;&#xa;IT/Services" style="shape=module;align=left;spacingLeft=20;align=center;verticalAlign=middle;fillStyle=auto;horizontal=1;" parent="1" vertex="1">
          <mxGeometry x="450" y="230" width="150" height="60" as="geometry" />
        </mxCell>
        <mxCell id="e6CmxIZeDy8vNOFkBmJb-76" style="edgeStyle=orthogonalEdgeStyle;rounded=0;orthogonalLoop=1;jettySize=auto;html=1;exitX=1;exitY=0.25;exitDx=0;exitDy=0;entryX=0;entryY=0;entryDx=0;entryDy=15;entryPerimeter=0;dashed=1;fontSize=12;" parent="1" source="e6CmxIZeDy8vNOFkBmJb-32" target="e6CmxIZeDy8vNOFkBmJb-74" edge="1">
          <mxGeometry relative="1" as="geometry">
            <Array as="points">
              <mxPoint x="740" y="135" />
              <mxPoint x="740" y="215" />
            </Array>
          </mxGeometry>
        </mxCell>
        <mxCell id="e6CmxIZeDy8vNOFkBmJb-32" value="&lt;&lt;component&gt;&gt;&#xa;User" style="shape=module;align=left;spacingLeft=20;align=center;verticalAlign=middle;fillStyle=auto;horizontal=1;" parent="1" vertex="1">
          <mxGeometry x="450" y="120" width="150" height="60" as="geometry" />
        </mxCell>
        <mxCell id="e6CmxIZeDy8vNOFkBmJb-43" value="" style="ellipse;html=1;fillStyle=auto;" parent="1" vertex="1">
          <mxGeometry x="390" y="470" width="30" height="30" as="geometry" />
        </mxCell>
        <mxCell id="e6CmxIZeDy8vNOFkBmJb-44" style="edgeStyle=orthogonalEdgeStyle;rounded=0;orthogonalLoop=1;jettySize=auto;html=1;exitX=0;exitY=0;exitDx=0;exitDy=15;exitPerimeter=0;dashed=1;" parent="1" edge="1">
          <mxGeometry relative="1" as="geometry">
            <mxPoint x="420" y="365.0526315789475" as="targetPoint" />
            <mxPoint x="450" y="365" as="sourcePoint" />
          </mxGeometry>
        </mxCell>
        <mxCell id="e6CmxIZeDy8vNOFkBmJb-45" value="" style="ellipse;html=1;fillStyle=auto;" parent="1" vertex="1">
          <mxGeometry x="390" y="350" width="30" height="30" as="geometry" />
        </mxCell>
        <mxCell id="e6CmxIZeDy8vNOFkBmJb-46" style="edgeStyle=orthogonalEdgeStyle;rounded=0;orthogonalLoop=1;jettySize=auto;html=1;exitX=0;exitY=0;exitDx=0;exitDy=15;exitPerimeter=0;dashed=1;" parent="1" edge="1">
          <mxGeometry relative="1" as="geometry">
            <mxPoint x="420" y="245.0526315789475" as="targetPoint" />
            <mxPoint x="450" y="245" as="sourcePoint" />
          </mxGeometry>
        </mxCell>
        <mxCell id="e6CmxIZeDy8vNOFkBmJb-47" value="" style="ellipse;html=1;fillStyle=auto;" parent="1" vertex="1">
          <mxGeometry x="390" y="230" width="30" height="30" as="geometry" />
        </mxCell>
        <mxCell id="e6CmxIZeDy8vNOFkBmJb-48" style="edgeStyle=orthogonalEdgeStyle;rounded=0;orthogonalLoop=1;jettySize=auto;html=1;exitX=0;exitY=0;exitDx=0;exitDy=15;exitPerimeter=0;dashed=1;" parent="1" edge="1">
          <mxGeometry relative="1" as="geometry">
            <mxPoint x="420" y="135.0526315789475" as="targetPoint" />
            <mxPoint x="450" y="135" as="sourcePoint" />
          </mxGeometry>
        </mxCell>
        <mxCell id="e6CmxIZeDy8vNOFkBmJb-49" value="" style="ellipse;html=1;fillStyle=auto;" parent="1" vertex="1">
          <mxGeometry x="390" y="120" width="30" height="30" as="geometry" />
        </mxCell>
        <mxCell id="e6CmxIZeDy8vNOFkBmJb-50" value="&lt;font style=&quot;font-size: 9px;&quot;&gt;Data access&lt;/font&gt;" style="text;html=1;align=center;verticalAlign=middle;resizable=0;points=[];autosize=1;strokeColor=none;fillColor=none;" parent="1" vertex="1">
          <mxGeometry x="375" y="90" width="70" height="30" as="geometry" />
        </mxCell>
        <mxCell id="e6CmxIZeDy8vNOFkBmJb-51" value="&lt;font style=&quot;font-size: 9px;&quot;&gt;Data access&lt;/font&gt;" style="text;html=1;align=center;verticalAlign=middle;resizable=0;points=[];autosize=1;strokeColor=none;fillColor=none;" parent="1" vertex="1">
          <mxGeometry x="370" y="440" width="70" height="30" as="geometry" />
        </mxCell>
        <mxCell id="e6CmxIZeDy8vNOFkBmJb-53" value="&lt;font style=&quot;font-size: 9px;&quot;&gt;Data access&lt;/font&gt;" style="text;html=1;align=center;verticalAlign=middle;resizable=0;points=[];autosize=1;strokeColor=none;fillColor=none;" parent="1" vertex="1">
          <mxGeometry x="370" y="320" width="70" height="30" as="geometry" />
        </mxCell>
        <mxCell id="e6CmxIZeDy8vNOFkBmJb-54" value="&lt;font style=&quot;font-size: 9px;&quot;&gt;Data access&lt;/font&gt;" style="text;html=1;align=center;verticalAlign=middle;resizable=0;points=[];autosize=1;strokeColor=none;fillColor=none;" parent="1" vertex="1">
          <mxGeometry x="375" y="200" width="70" height="30" as="geometry" />
        </mxCell>
        <mxCell id="e6CmxIZeDy8vNOFkBmJb-60" style="edgeStyle=orthogonalEdgeStyle;rounded=0;orthogonalLoop=1;jettySize=auto;html=1;exitX=1;exitY=0.5;exitDx=0;exitDy=0;entryX=0;entryY=0;entryDx=0;entryDy=35;dashed=1;fontSize=9;entryPerimeter=0;startArrow=none;exitPerimeter=0;" parent="1" source="e6CmxIZeDy8vNOFkBmJb-66" target="e6CmxIZeDy8vNOFkBmJb-58" edge="1">
          <mxGeometry relative="1" as="geometry">
            <Array as="points">
              <mxPoint x="820" y="560" />
              <mxPoint x="820" y="565" />
            </Array>
          </mxGeometry>
        </mxCell>
        <mxCell id="e6CmxIZeDy8vNOFkBmJb-73" value="Access control" style="edgeLabel;html=1;align=center;verticalAlign=middle;resizable=0;points=[];fontSize=12;" parent="e6CmxIZeDy8vNOFkBmJb-60" vertex="1" connectable="0">
          <mxGeometry x="-0.4279" y="-3" relative="1" as="geometry">
            <mxPoint x="13" y="-3" as="offset" />
          </mxGeometry>
        </mxCell>
        <mxCell id="e6CmxIZeDy8vNOFkBmJb-61" style="edgeStyle=orthogonalEdgeStyle;rounded=0;orthogonalLoop=1;jettySize=auto;html=1;dashed=1;fontSize=9;entryX=0;entryY=0;entryDx=0;entryDy=35;entryPerimeter=0;startArrow=none;exitX=1;exitY=0.5;exitDx=0;exitDy=0;exitPerimeter=0;" parent="1" source="e6CmxIZeDy8vNOFkBmJb-68" target="e6CmxIZeDy8vNOFkBmJb-70" edge="1">
          <mxGeometry relative="1" as="geometry">
            <mxPoint x="1030" y="559.9999999999999" as="targetPoint" />
          </mxGeometry>
        </mxCell>
        <mxCell id="e6CmxIZeDy8vNOFkBmJb-58" value="Presistence" style="shape=module;align=left;spacingLeft=20;align=center;verticalAlign=middle;fillStyle=auto;horizontal=1;" parent="1" vertex="1">
          <mxGeometry x="840" y="530" width="150" height="60" as="geometry" />
        </mxCell>
        <mxCell id="e6CmxIZeDy8vNOFkBmJb-59" value="" style="endArrow=classic;html=1;rounded=0;dashed=1;fontSize=9;entryX=0;entryY=0;entryDx=0;entryDy=15;entryPerimeter=0;startArrow=none;" parent="1" source="e6CmxIZeDy8vNOFkBmJb-63" target="e6CmxIZeDy8vNOFkBmJb-58" edge="1">
          <mxGeometry width="50" height="50" relative="1" as="geometry">
            <mxPoint x="650" y="440" as="sourcePoint" />
            <mxPoint x="770" y="440" as="targetPoint" />
            <Array as="points">
              <mxPoint x="710" y="545" />
            </Array>
          </mxGeometry>
        </mxCell>
        <mxCell id="e6CmxIZeDy8vNOFkBmJb-72" value="&lt;font style=&quot;font-size: 12px;&quot;&gt;Encryption&lt;/font&gt;" style="edgeLabel;html=1;align=center;verticalAlign=middle;resizable=0;points=[];fontSize=9;" parent="e6CmxIZeDy8vNOFkBmJb-59" vertex="1" connectable="0">
          <mxGeometry x="-0.1976" y="2" relative="1" as="geometry">
            <mxPoint x="29" as="offset" />
          </mxGeometry>
        </mxCell>
        <mxCell id="e6CmxIZeDy8vNOFkBmJb-62" value="" style="endArrow=none;html=1;rounded=0;dashed=1;fontSize=9;entryX=0;entryY=0.5;entryDx=0;entryDy=0;entryPerimeter=0;" parent="1" target="e6CmxIZeDy8vNOFkBmJb-63" edge="1">
          <mxGeometry width="50" height="50" relative="1" as="geometry">
            <mxPoint x="650" y="439.9999999999999" as="sourcePoint" />
            <mxPoint x="820" y="544.9999999999999" as="targetPoint" />
            <Array as="points">
              <mxPoint x="710" y="440" />
            </Array>
          </mxGeometry>
        </mxCell>
        <mxCell id="e6CmxIZeDy8vNOFkBmJb-63" value="" style="shape=providedRequiredInterface;html=1;verticalLabelPosition=bottom;sketch=0;fontSize=9;direction=south;" parent="1" vertex="1">
          <mxGeometry x="700" y="490" width="20" height="20" as="geometry" />
        </mxCell>
        <mxCell id="e6CmxIZeDy8vNOFkBmJb-67" value="" style="edgeStyle=orthogonalEdgeStyle;rounded=0;orthogonalLoop=1;jettySize=auto;html=1;exitX=0.5;exitY=1;exitDx=0;exitDy=0;entryX=0;entryY=0.5;entryDx=0;entryDy=0;dashed=1;fontSize=9;entryPerimeter=0;endArrow=none;" parent="1" source="e6CmxIZeDy8vNOFkBmJb-29" target="e6CmxIZeDy8vNOFkBmJb-66" edge="1">
          <mxGeometry relative="1" as="geometry">
            <mxPoint x="525" y="530" as="sourcePoint" />
            <mxPoint x="820" y="565" as="targetPoint" />
            <Array as="points">
              <mxPoint x="525" y="560" />
            </Array>
          </mxGeometry>
        </mxCell>
        <mxCell id="e6CmxIZeDy8vNOFkBmJb-66" value="" style="shape=providedRequiredInterface;html=1;verticalLabelPosition=bottom;sketch=0;fontSize=9;" parent="1" vertex="1">
          <mxGeometry x="660" y="550" width="20" height="20" as="geometry" />
        </mxCell>
        <mxCell id="e6CmxIZeDy8vNOFkBmJb-70" value="&lt;&lt;component&gt;&gt;&#xa;stockDB" style="shape=module;align=left;spacingLeft=20;align=center;verticalAlign=middle;fillStyle=auto;horizontal=1;" parent="1" vertex="1">
          <mxGeometry x="1070" y="620" width="150" height="60" as="geometry" />
        </mxCell>
        <mxCell id="e6CmxIZeDy8vNOFkBmJb-71" value="" style="edgeStyle=orthogonalEdgeStyle;rounded=0;orthogonalLoop=1;jettySize=auto;html=1;dashed=1;fontSize=9;entryX=0;entryY=0.5;entryDx=0;entryDy=0;entryPerimeter=0;endArrow=none;" parent="1" source="e6CmxIZeDy8vNOFkBmJb-58" target="e6CmxIZeDy8vNOFkBmJb-68" edge="1">
          <mxGeometry relative="1" as="geometry">
            <mxPoint x="1070" y="655" as="targetPoint" />
            <mxPoint x="990" y="559.9756097560977" as="sourcePoint" />
          </mxGeometry>
        </mxCell>
        <mxCell id="e6CmxIZeDy8vNOFkBmJb-68" value="" style="shape=providedRequiredInterface;html=1;verticalLabelPosition=bottom;sketch=0;fontSize=9;direction=south;" parent="1" vertex="1">
          <mxGeometry x="1020" y="600" width="20" height="20" as="geometry" />
        </mxCell>
        <mxCell id="e6CmxIZeDy8vNOFkBmJb-75" style="edgeStyle=orthogonalEdgeStyle;rounded=0;orthogonalLoop=1;jettySize=auto;html=1;exitX=1;exitY=0.5;exitDx=0;exitDy=0;entryX=0;entryY=0;entryDx=0;entryDy=35;dashed=1;fontSize=12;entryPerimeter=0;startArrow=none;exitPerimeter=0;" parent="1" source="e6CmxIZeDy8vNOFkBmJb-77" target="e6CmxIZeDy8vNOFkBmJb-74" edge="1">
          <mxGeometry relative="1" as="geometry" />
        </mxCell>
        <mxCell id="e6CmxIZeDy8vNOFkBmJb-74" value="&lt;&lt;component&gt;&gt;&#xa;userDB" style="shape=module;align=left;spacingLeft=20;align=center;verticalAlign=middle;fillStyle=auto;horizontal=1;" parent="1" vertex="1">
          <mxGeometry x="800" y="200" width="150" height="60" as="geometry" />
        </mxCell>
        <mxCell id="e6CmxIZeDy8vNOFkBmJb-78" value="" style="edgeStyle=orthogonalEdgeStyle;rounded=0;orthogonalLoop=1;jettySize=auto;html=1;exitX=1;exitY=0.75;exitDx=0;exitDy=0;entryX=0;entryY=0.5;entryDx=0;entryDy=0;dashed=1;fontSize=12;entryPerimeter=0;endArrow=none;" parent="1" source="e6CmxIZeDy8vNOFkBmJb-32" target="e6CmxIZeDy8vNOFkBmJb-77" edge="1">
          <mxGeometry relative="1" as="geometry">
            <mxPoint x="600" y="165" as="sourcePoint" />
            <mxPoint x="799.9999999999998" y="235" as="targetPoint" />
          </mxGeometry>
        </mxCell>
        <mxCell id="e6CmxIZeDy8vNOFkBmJb-77" value="" style="shape=providedRequiredInterface;html=1;verticalLabelPosition=bottom;sketch=0;fontSize=9;direction=south;" parent="1" vertex="1">
          <mxGeometry x="690" y="180" width="20" height="20" as="geometry" />
        </mxCell>
        <mxCell id="e6CmxIZeDy8vNOFkBmJb-79" value="" style="shape=providedRequiredInterface;html=1;verticalLabelPosition=bottom;sketch=0;fontSize=9;direction=south;" parent="1" vertex="1">
          <mxGeometry x="730" y="170" width="20" height="20" as="geometry" />
        </mxCell>
        <mxCell id="4nTnU15cNoyI8IVOR9mC-1" style="edgeStyle=orthogonalEdgeStyle;rounded=0;orthogonalLoop=1;jettySize=auto;html=1;exitX=1;exitY=0.25;exitDx=0;exitDy=0;entryX=0;entryY=0;entryDx=0;entryDy=35;entryPerimeter=0;dashed=1;" parent="1" source="4nTnU15cNoyI8IVOR9mC-3" target="4nTnU15cNoyI8IVOR9mC-16" edge="1">
          <mxGeometry relative="1" as="geometry" />
        </mxCell>
        <mxCell id="4nTnU15cNoyI8IVOR9mC-2" style="edgeStyle=orthogonalEdgeStyle;rounded=0;orthogonalLoop=1;jettySize=auto;html=1;exitX=1;exitY=0.75;exitDx=0;exitDy=0;entryX=0;entryY=0;entryDx=0;entryDy=35;entryPerimeter=0;dashed=1;" parent="1" source="4nTnU15cNoyI8IVOR9mC-3" target="4nTnU15cNoyI8IVOR9mC-8" edge="1">
          <mxGeometry relative="1" as="geometry" />
        </mxCell>
        <mxCell id="4nTnU15cNoyI8IVOR9mC-3" value="&lt;&lt;component&gt;&gt;&#xa;University System" style="shape=module;align=left;spacingLeft=20;align=center;verticalAlign=middle;fillStyle=auto;horizontal=1;" parent="1" vertex="1">
          <mxGeometry x="120" y="270" width="150" height="60" as="geometry" />
        </mxCell>
        <mxCell id="4nTnU15cNoyI8IVOR9mC-4" value="" style="ellipse;html=1;fillStyle=auto;" parent="1" vertex="1">
          <mxGeometry x="180" y="360" width="30" height="30" as="geometry" />
        </mxCell>
        <mxCell id="4nTnU15cNoyI8IVOR9mC-5" value="" style="endArrow=open;html=1;rounded=0;align=center;verticalAlign=top;endFill=0;labelBackgroundColor=none;endSize=6;entryX=0.5;entryY=1;entryDx=0;entryDy=0;" parent="1" source="4nTnU15cNoyI8IVOR9mC-4" target="4nTnU15cNoyI8IVOR9mC-3" edge="1">
          <mxGeometry relative="1" as="geometry">
            <mxPoint x="180" y="290" as="targetPoint" />
          </mxGeometry>
        </mxCell>
        <mxCell id="4nTnU15cNoyI8IVOR9mC-7" style="edgeStyle=orthogonalEdgeStyle;rounded=0;orthogonalLoop=1;jettySize=auto;html=1;exitX=0;exitY=0;exitDx=0;exitDy=15;exitPerimeter=0;dashed=1;" parent="1" source="4nTnU15cNoyI8IVOR9mC-8" edge="1">
          <mxGeometry relative="1" as="geometry">
            <mxPoint x="420" y="485.0526315789475" as="targetPoint" />
          </mxGeometry>
        </mxCell>
        <mxCell id="4nTnU15cNoyI8IVOR9mC-8" value="&lt;&lt;component&gt;&gt;&#xa;Stock" style="shape=module;align=left;spacingLeft=20;align=center;verticalAlign=middle;fillStyle=auto;horizontal=1;" parent="1" vertex="1">
          <mxGeometry x="450" y="470" width="150" height="60" as="geometry" />
        </mxCell>
        <mxCell id="4nTnU15cNoyI8IVOR9mC-9" style="edgeStyle=orthogonalEdgeStyle;rounded=0;orthogonalLoop=1;jettySize=auto;html=1;entryX=1;entryY=0.5;entryDx=0;entryDy=0;" parent="1" source="4nTnU15cNoyI8IVOR9mC-11" target="4nTnU15cNoyI8IVOR9mC-8" edge="1">
          <mxGeometry relative="1" as="geometry">
            <Array as="points">
              <mxPoint x="620" y="380" />
              <mxPoint x="620" y="500" />
            </Array>
          </mxGeometry>
        </mxCell>
        <mxCell id="4nTnU15cNoyI8IVOR9mC-10" style="edgeStyle=orthogonalEdgeStyle;rounded=0;orthogonalLoop=1;jettySize=auto;html=1;exitX=0;exitY=0;exitDx=0;exitDy=35;exitPerimeter=0;dashed=1;entryX=0;entryY=0;entryDx=0;entryDy=35;entryPerimeter=0;" parent="1" target="4nTnU15cNoyI8IVOR9mC-11" edge="1">
          <mxGeometry relative="1" as="geometry">
            <mxPoint x="360" y="385.0526315789475" as="sourcePoint" />
          </mxGeometry>
        </mxCell>
        <mxCell id="4nTnU15cNoyI8IVOR9mC-11" value="&lt;&lt;component&gt;&gt;&#xa;Finance" style="shape=module;align=left;spacingLeft=20;align=center;verticalAlign=middle;fillStyle=auto;horizontal=1;" parent="1" vertex="1">
          <mxGeometry x="450" y="350" width="150" height="60" as="geometry" />
        </mxCell>
        <mxCell id="4nTnU15cNoyI8IVOR9mC-12" style="edgeStyle=orthogonalEdgeStyle;rounded=0;orthogonalLoop=1;jettySize=auto;html=1;exitX=1;exitY=0.5;exitDx=0;exitDy=0;" parent="1" source="4nTnU15cNoyI8IVOR9mC-14" edge="1">
          <mxGeometry relative="1" as="geometry">
            <mxPoint x="600.2631578947369" y="510" as="targetPoint" />
            <Array as="points">
              <mxPoint x="650" y="260" />
              <mxPoint x="650" y="510" />
            </Array>
          </mxGeometry>
        </mxCell>
        <mxCell id="4nTnU15cNoyI8IVOR9mC-13" style="edgeStyle=orthogonalEdgeStyle;rounded=0;orthogonalLoop=1;jettySize=auto;html=1;exitX=0;exitY=0;exitDx=0;exitDy=35;exitPerimeter=0;dashed=1;entryX=0;entryY=0;entryDx=0;entryDy=35;entryPerimeter=0;" parent="1" target="4nTnU15cNoyI8IVOR9mC-14" edge="1">
          <mxGeometry relative="1" as="geometry">
            <mxPoint x="360" y="265.0526315789474" as="sourcePoint" />
          </mxGeometry>
        </mxCell>
        <mxCell id="4nTnU15cNoyI8IVOR9mC-14" value="&lt;&lt;component&gt;&gt;&#xa;Items" style="shape=module;align=left;spacingLeft=20;align=center;verticalAlign=middle;fillStyle=auto;horizontal=1;" parent="1" vertex="1">
          <mxGeometry x="450" y="230" width="150" height="60" as="geometry" />
        </mxCell>
        <mxCell id="4nTnU15cNoyI8IVOR9mC-15" style="edgeStyle=orthogonalEdgeStyle;rounded=0;orthogonalLoop=1;jettySize=auto;html=1;exitX=1;exitY=0.25;exitDx=0;exitDy=0;entryX=0;entryY=0;entryDx=0;entryDy=15;entryPerimeter=0;fontSize=12;" parent="1" source="4nTnU15cNoyI8IVOR9mC-16" target="4nTnU15cNoyI8IVOR9mC-42" edge="1">
          <mxGeometry relative="1" as="geometry">
            <Array as="points">
              <mxPoint x="740" y="135" />
              <mxPoint x="740" y="215" />
            </Array>
          </mxGeometry>
        </mxCell>
        <mxCell id="4nTnU15cNoyI8IVOR9mC-16" value="&lt;&lt;component&gt;&gt;&#xa;User" style="shape=module;align=left;spacingLeft=20;align=center;verticalAlign=middle;fillStyle=auto;horizontal=1;" parent="1" vertex="1">
          <mxGeometry x="450" y="120" width="150" height="60" as="geometry" />
        </mxCell>
        <mxCell id="4nTnU15cNoyI8IVOR9mC-17" value="" style="ellipse;html=1;fillStyle=auto;" parent="1" vertex="1">
          <mxGeometry x="390" y="470" width="30" height="30" as="geometry" />
        </mxCell>
        <mxCell id="4nTnU15cNoyI8IVOR9mC-18" style="edgeStyle=orthogonalEdgeStyle;rounded=0;orthogonalLoop=1;jettySize=auto;html=1;exitX=0;exitY=0;exitDx=0;exitDy=15;exitPerimeter=0;dashed=1;" parent="1" edge="1">
          <mxGeometry relative="1" as="geometry">
            <mxPoint x="420" y="365.0526315789475" as="targetPoint" />
            <mxPoint x="450" y="365" as="sourcePoint" />
          </mxGeometry>
        </mxCell>
        <mxCell id="4nTnU15cNoyI8IVOR9mC-19" value="" style="ellipse;html=1;fillStyle=auto;" parent="1" vertex="1">
          <mxGeometry x="390" y="350" width="30" height="30" as="geometry" />
        </mxCell>
        <mxCell id="4nTnU15cNoyI8IVOR9mC-20" style="edgeStyle=orthogonalEdgeStyle;rounded=0;orthogonalLoop=1;jettySize=auto;html=1;exitX=0;exitY=0;exitDx=0;exitDy=15;exitPerimeter=0;dashed=1;" parent="1" edge="1">
          <mxGeometry relative="1" as="geometry">
            <mxPoint x="420" y="245.0526315789475" as="targetPoint" />
            <mxPoint x="450" y="245" as="sourcePoint" />
          </mxGeometry>
        </mxCell>
        <mxCell id="4nTnU15cNoyI8IVOR9mC-21" value="" style="ellipse;html=1;fillStyle=auto;" parent="1" vertex="1">
          <mxGeometry x="390" y="230" width="30" height="30" as="geometry" />
        </mxCell>
        <mxCell id="4nTnU15cNoyI8IVOR9mC-22" style="edgeStyle=orthogonalEdgeStyle;rounded=0;orthogonalLoop=1;jettySize=auto;html=1;exitX=0;exitY=0;exitDx=0;exitDy=15;exitPerimeter=0;dashed=1;" parent="1" edge="1">
          <mxGeometry relative="1" as="geometry">
            <mxPoint x="420" y="135.0526315789475" as="targetPoint" />
            <mxPoint x="450" y="135" as="sourcePoint" />
          </mxGeometry>
        </mxCell>
        <mxCell id="4nTnU15cNoyI8IVOR9mC-23" value="" style="ellipse;html=1;fillStyle=auto;" parent="1" vertex="1">
          <mxGeometry x="390" y="120" width="30" height="30" as="geometry" />
        </mxCell>
        <mxCell id="4nTnU15cNoyI8IVOR9mC-24" value="&lt;font style=&quot;font-size: 9px;&quot;&gt;Data access&lt;/font&gt;" style="text;html=1;align=center;verticalAlign=middle;resizable=0;points=[];autosize=1;strokeColor=none;fillColor=none;" parent="1" vertex="1">
          <mxGeometry x="375" y="90" width="70" height="30" as="geometry" />
        </mxCell>
        <mxCell id="4nTnU15cNoyI8IVOR9mC-25" value="&lt;font style=&quot;font-size: 9px;&quot;&gt;Data access&lt;/font&gt;" style="text;html=1;align=center;verticalAlign=middle;resizable=0;points=[];autosize=1;strokeColor=none;fillColor=none;" parent="1" vertex="1">
          <mxGeometry x="370" y="440" width="70" height="30" as="geometry" />
        </mxCell>
        <mxCell id="4nTnU15cNoyI8IVOR9mC-26" value="&lt;font style=&quot;font-size: 9px;&quot;&gt;Data access&lt;/font&gt;" style="text;html=1;align=center;verticalAlign=middle;resizable=0;points=[];autosize=1;strokeColor=none;fillColor=none;" parent="1" vertex="1">
          <mxGeometry x="370" y="320" width="70" height="30" as="geometry" />
        </mxCell>
        <mxCell id="4nTnU15cNoyI8IVOR9mC-27" value="&lt;font style=&quot;font-size: 9px;&quot;&gt;Data access&lt;/font&gt;" style="text;html=1;align=center;verticalAlign=middle;resizable=0;points=[];autosize=1;strokeColor=none;fillColor=none;" parent="1" vertex="1">
          <mxGeometry x="375" y="200" width="70" height="30" as="geometry" />
        </mxCell>
        <mxCell id="4nTnU15cNoyI8IVOR9mC-28" style="edgeStyle=orthogonalEdgeStyle;rounded=0;orthogonalLoop=1;jettySize=auto;html=1;exitX=1;exitY=0.5;exitDx=0;exitDy=0;entryX=0;entryY=0;entryDx=0;entryDy=35;fontSize=9;entryPerimeter=0;startArrow=none;exitPerimeter=0;" parent="1" source="4nTnU15cNoyI8IVOR9mC-37" target="4nTnU15cNoyI8IVOR9mC-31" edge="1">
          <mxGeometry relative="1" as="geometry">
            <Array as="points">
              <mxPoint x="820" y="560" />
              <mxPoint x="820" y="565" />
            </Array>
          </mxGeometry>
        </mxCell>
        <mxCell id="4nTnU15cNoyI8IVOR9mC-29" value="Access control" style="edgeLabel;html=1;align=center;verticalAlign=middle;resizable=0;points=[];fontSize=12;" parent="4nTnU15cNoyI8IVOR9mC-28" vertex="1" connectable="0">
          <mxGeometry x="-0.4279" y="-3" relative="1" as="geometry">
            <mxPoint x="13" y="-3" as="offset" />
          </mxGeometry>
        </mxCell>
        <mxCell id="4nTnU15cNoyI8IVOR9mC-30" style="edgeStyle=orthogonalEdgeStyle;rounded=0;orthogonalLoop=1;jettySize=auto;html=1;fontSize=9;entryX=0;entryY=0;entryDx=0;entryDy=35;entryPerimeter=0;startArrow=none;exitX=1;exitY=0.5;exitDx=0;exitDy=0;exitPerimeter=0;" parent="1" source="4nTnU15cNoyI8IVOR9mC-40" target="4nTnU15cNoyI8IVOR9mC-38" edge="1">
          <mxGeometry relative="1" as="geometry">
            <mxPoint x="1030" y="559.9999999999999" as="targetPoint" />
          </mxGeometry>
        </mxCell>
        <mxCell id="4nTnU15cNoyI8IVOR9mC-31" value="Persistence" style="shape=module;align=left;spacingLeft=20;align=center;verticalAlign=middle;fillStyle=auto;horizontal=1;" parent="1" vertex="1">
          <mxGeometry x="840" y="530" width="150" height="60" as="geometry" />
        </mxCell>
        <mxCell id="4nTnU15cNoyI8IVOR9mC-32" value="" style="endArrow=classic;html=1;rounded=0;fontSize=9;entryX=0;entryY=0;entryDx=0;entryDy=15;entryPerimeter=0;startArrow=none;" parent="1" source="4nTnU15cNoyI8IVOR9mC-35" target="4nTnU15cNoyI8IVOR9mC-31" edge="1">
          <mxGeometry width="50" height="50" relative="1" as="geometry">
            <mxPoint x="650" y="440" as="sourcePoint" />
            <mxPoint x="770" y="440" as="targetPoint" />
            <Array as="points">
              <mxPoint x="710" y="545" />
            </Array>
          </mxGeometry>
        </mxCell>
        <mxCell id="4nTnU15cNoyI8IVOR9mC-33" value="&lt;font style=&quot;font-size: 12px;&quot;&gt;Encryption&lt;/font&gt;" style="edgeLabel;html=1;align=center;verticalAlign=middle;resizable=0;points=[];fontSize=9;" parent="4nTnU15cNoyI8IVOR9mC-32" vertex="1" connectable="0">
          <mxGeometry x="-0.1976" y="2" relative="1" as="geometry">
            <mxPoint x="29" as="offset" />
          </mxGeometry>
        </mxCell>
        <mxCell id="4nTnU15cNoyI8IVOR9mC-34" value="" style="endArrow=none;html=1;rounded=0;fontSize=9;entryX=0;entryY=0.5;entryDx=0;entryDy=0;entryPerimeter=0;" parent="1" target="4nTnU15cNoyI8IVOR9mC-35" edge="1">
          <mxGeometry width="50" height="50" relative="1" as="geometry">
            <mxPoint x="650" y="440" as="sourcePoint" />
            <mxPoint x="820" y="544.9999999999999" as="targetPoint" />
            <Array as="points">
              <mxPoint x="710" y="440" />
            </Array>
          </mxGeometry>
        </mxCell>
        <mxCell id="4nTnU15cNoyI8IVOR9mC-35" value="" style="shape=providedRequiredInterface;html=1;verticalLabelPosition=bottom;sketch=0;fontSize=9;direction=south;" parent="1" vertex="1">
          <mxGeometry x="700" y="490" width="20" height="20" as="geometry" />
        </mxCell>
        <mxCell id="4nTnU15cNoyI8IVOR9mC-36" value="" style="edgeStyle=orthogonalEdgeStyle;rounded=0;orthogonalLoop=1;jettySize=auto;html=1;exitX=0.5;exitY=1;exitDx=0;exitDy=0;entryX=0;entryY=0.5;entryDx=0;entryDy=0;fontSize=9;entryPerimeter=0;endArrow=none;" parent="1" source="4nTnU15cNoyI8IVOR9mC-8" target="4nTnU15cNoyI8IVOR9mC-37" edge="1">
          <mxGeometry relative="1" as="geometry">
            <mxPoint x="525" y="530" as="sourcePoint" />
            <mxPoint x="820" y="565" as="targetPoint" />
            <Array as="points">
              <mxPoint x="525" y="560" />
            </Array>
          </mxGeometry>
        </mxCell>
        <mxCell id="4nTnU15cNoyI8IVOR9mC-37" value="" style="shape=providedRequiredInterface;html=1;verticalLabelPosition=bottom;sketch=0;fontSize=9;" parent="1" vertex="1">
          <mxGeometry x="660" y="550" width="20" height="20" as="geometry" />
        </mxCell>
        <mxCell id="4nTnU15cNoyI8IVOR9mC-38" value="&lt;&lt;component&gt;&gt;&#xa;inventoryDB" style="shape=module;align=left;spacingLeft=20;align=center;verticalAlign=middle;fillStyle=auto;horizontal=1;" parent="1" vertex="1">
          <mxGeometry x="1070" y="620" width="150" height="60" as="geometry" />
        </mxCell>
        <mxCell id="4nTnU15cNoyI8IVOR9mC-39" value="" style="edgeStyle=orthogonalEdgeStyle;rounded=0;orthogonalLoop=1;jettySize=auto;html=1;fontSize=9;entryX=0;entryY=0.5;entryDx=0;entryDy=0;entryPerimeter=0;endArrow=none;" parent="1" source="4nTnU15cNoyI8IVOR9mC-31" target="4nTnU15cNoyI8IVOR9mC-40" edge="1">
          <mxGeometry relative="1" as="geometry">
            <mxPoint x="1070" y="655" as="targetPoint" />
            <mxPoint x="990" y="559.9756097560977" as="sourcePoint" />
          </mxGeometry>
        </mxCell>
        <mxCell id="4nTnU15cNoyI8IVOR9mC-40" value="" style="shape=providedRequiredInterface;html=1;verticalLabelPosition=bottom;sketch=0;fontSize=9;direction=south;" parent="1" vertex="1">
          <mxGeometry x="1020" y="600" width="20" height="20" as="geometry" />
        </mxCell>
        <mxCell id="4nTnU15cNoyI8IVOR9mC-41" style="edgeStyle=orthogonalEdgeStyle;rounded=0;orthogonalLoop=1;jettySize=auto;html=1;exitX=1;exitY=0.5;exitDx=0;exitDy=0;entryX=0;entryY=0;entryDx=0;entryDy=35;fontSize=12;entryPerimeter=0;startArrow=none;exitPerimeter=0;" parent="1" source="4nTnU15cNoyI8IVOR9mC-44" target="4nTnU15cNoyI8IVOR9mC-42" edge="1">
          <mxGeometry relative="1" as="geometry" />
        </mxCell>
        <mxCell id="4nTnU15cNoyI8IVOR9mC-42" value="&lt;&lt;component&gt;&gt;&#xa;userDB" style="shape=module;align=left;spacingLeft=20;align=center;verticalAlign=middle;fillStyle=auto;horizontal=1;" parent="1" vertex="1">
          <mxGeometry x="800" y="200" width="150" height="60" as="geometry" />
        </mxCell>
        <mxCell id="4nTnU15cNoyI8IVOR9mC-43" value="" style="edgeStyle=orthogonalEdgeStyle;rounded=0;orthogonalLoop=1;jettySize=auto;html=1;exitX=1;exitY=0.75;exitDx=0;exitDy=0;entryX=0;entryY=0.5;entryDx=0;entryDy=0;fontSize=12;entryPerimeter=0;endArrow=none;" parent="1" source="4nTnU15cNoyI8IVOR9mC-16" target="4nTnU15cNoyI8IVOR9mC-44" edge="1">
          <mxGeometry relative="1" as="geometry">
            <mxPoint x="600" y="165" as="sourcePoint" />
            <mxPoint x="799.9999999999998" y="235" as="targetPoint" />
          </mxGeometry>
        </mxCell>
        <mxCell id="4nTnU15cNoyI8IVOR9mC-44" value="" style="shape=providedRequiredInterface;html=1;verticalLabelPosition=bottom;sketch=0;fontSize=9;direction=south;" parent="1" vertex="1">
          <mxGeometry x="690" y="180" width="20" height="20" as="geometry" />
        </mxCell>
        <mxCell id="4nTnU15cNoyI8IVOR9mC-45" value="" style="shape=providedRequiredInterface;html=1;verticalLabelPosition=bottom;sketch=0;fontSize=9;direction=south;" parent="1" vertex="1">
          <mxGeometry x="730" y="170" width="20" height="20" as="geometry" />
        </mxCell>
      </root>
    </mxGraphModel>
  </diagram>
</mxfile>
